<svg width="63" height="53" viewBox="0 0 63 53" fill="none" xmlns="http://www.w3.org/2000/svg">
<g opacity="0.2">
<path opacity="0.2" fill-rule="evenodd" clip-rule="evenodd" d="M-1.91695 -48.8947C2.46842 -45.6482 3.237 -38.8571 5.06891 -33.2151C6.77321 -27.9666 8.5014 -22.8541 8.35664 -17.2571C8.18949 -10.6635 8.73795 -2.53333 4.19214 1.4126C-0.386501 5.38887 -6.8515 0.656073 -12.5785 0.922139C-17.7601 1.16134 -23.3595 6.27126 -27.6569 2.8878C-31.9997 -0.533803 -29.926 -8.57141 -31.8281 -14.2411C-33.5824 -19.4697 -38.7602 -23.271 -38.3028 -28.8471C-37.8387 -34.5064 -33.272 -38.3104 -29.5522 -42.0041C-25.9212 -45.6077 -21.9313 -48.575 -17.2534 -49.7406C-12.1293 -51.019 -6.34486 -52.1716 -1.91695 -48.8947Z" stroke="white"/>
<path opacity="0.2" fill-rule="evenodd" clip-rule="evenodd" d="M0.789518 -55.4511C6.2427 -51.4142 7.20006 -42.9712 9.47968 -35.9634C11.6011 -29.4374 13.7479 -23.0854 13.574 -16.1269C13.3688 -7.93608 14.0538 2.16675 8.40366 7.07035C2.71244 12.0104 -5.32628 6.12372 -12.4457 6.44786C-18.8876 6.74426 -25.8466 13.0918 -31.1908 8.88409C-36.5918 4.63135 -34.0167 -5.35699 -36.3836 -12.403C-38.5662 -18.903 -45.0051 -23.6287 -44.4425 -30.556C-43.8679 -37.5873 -38.1916 -42.314 -33.569 -46.9012C-29.0567 -51.3776 -24.0975 -55.0638 -18.2817 -56.5103C-11.9085 -58.0972 -4.71739 -59.5279 0.789518 -55.4511Z" stroke="white"/>
<path opacity="0.2" fill-rule="evenodd" clip-rule="evenodd" d="M3.30564 -61.5361C9.75051 -56.7694 10.8847 -46.7959 13.58 -38.5115C16.0879 -30.8033 18.6265 -23.2979 18.422 -15.0801C18.1817 -5.40382 18.9936 6.53464 12.3182 12.3231C5.59422 18.1558 -3.90708 11.2007 -12.3189 11.5847C-19.9301 11.9313 -28.1524 19.4263 -34.4681 14.4525C-40.8511 9.42586 -37.8103 -2.36959 -40.6093 -10.6939C-43.1896 -18.3717 -50.7993 -23.9592 -50.1322 -32.1422C-49.4554 -40.451 -42.7486 -46.033 -37.2872 -51.4488C-31.9564 -56.7355 -26.0944 -61.0881 -19.2257 -62.7963C-11.7025 -64.6649 -3.20563 -66.3522 3.30564 -61.5361Z" stroke="white"/>
<path opacity="0.2" fill-rule="evenodd" clip-rule="evenodd" d="M5.91137 -67.8566C13.3852 -62.3255 14.7023 -50.7648 17.8296 -41.163C20.7397 -32.2268 23.6834 -23.5236 23.4484 -13.9946C23.173 -2.77385 24.12 11.0657 16.376 17.7763C8.57974 24.5363 -2.44003 16.4702 -12.195 16.9096C-21.0225 17.3083 -30.5551 25.9992 -37.8797 20.2307C-45.282 14.4024 -41.7599 0.725449 -45.0051 -8.92662C-47.9988 -17.8282 -56.8248 -24.308 -56.0488 -33.7997C-55.2653 -43.4301 -47.4885 -49.9026 -41.1563 -56.1807C-34.9748 -62.308 -28.1815 -67.3536 -20.2129 -69.3313C-11.4891 -71.4876 -1.63637 -73.444 5.91137 -67.8566Z" stroke="white"/>
<path opacity="0.2" fill-rule="evenodd" clip-rule="evenodd" d="M9.10057 -75.5825C17.831 -69.118 19.3734 -55.6146 23.0275 -44.3956C26.4287 -33.9558 29.8701 -23.7909 29.594 -12.6611C29.2731 0.443717 30.3775 16.6099 21.3351 24.4489C12.2316 32.3417 -0.646213 22.9181 -12.0421 23.432C-22.3552 23.8966 -33.4906 34.0437 -42.0487 27.3062C-50.6978 20.4968 -46.5833 4.52174 -50.3777 -6.7536C-53.8766 -17.1536 -64.1883 -24.7205 -63.2869 -35.8051C-62.3728 -47.0536 -53.2879 -54.612 -45.8924 -61.9431C-38.6722 -69.1 -30.7364 -74.9901 -21.4269 -77.3006C-11.228 -79.8278 0.282808 -82.1085 9.10057 -75.5825Z" stroke="white"/>
<path opacity="0.2" fill-rule="evenodd" clip-rule="evenodd" d="M12.5801 -84.0091C22.6858 -76.5315 24.4699 -60.9066 28.6978 -47.9257C32.634 -35.8461 36.6179 -24.0835 36.3038 -11.2075C35.9307 3.95488 37.2134 22.6573 26.7525 31.7226C16.2163 40.8538 1.31704 29.9487 -11.8697 30.5432C-23.8028 31.0779 -36.6866 42.8178 -46.59 35.0204C-56.5987 27.1415 -51.8403 8.65969 -56.2324 -4.38711C-60.2827 -16.4173 -72.2151 -25.1773 -71.1749 -37.9988C-70.1183 -51.0153 -59.6089 -59.7522 -51.0508 -68.2378C-42.6934 -76.5162 -33.5153 -83.33 -22.7432 -85.9994C-10.9437 -88.9252 2.37514 -91.5621 12.5801 -84.0091Z" stroke="white"/>
<path opacity="0.2" fill-rule="evenodd" clip-rule="evenodd" d="M15.9626 -92.2047C27.4032 -83.7374 29.4239 -66.0523 34.2137 -51.3588C38.6715 -37.6863 43.1822 -24.3716 42.8278 -9.79605C42.4099 7.36395 43.8597 28.5343 32.0199 38.7957C20.0927 49.1289 3.22581 36.7822 -11.7018 37.4521C-25.2079 38.0588 -39.7937 51.3432 -51.0053 42.5171C-62.3362 33.5965 -56.9509 12.6776 -61.9243 -2.08957C-66.5104 -15.7058 -80.0187 -25.6229 -78.8427 -40.1361C-77.6488 -54.8695 -65.7523 -64.7588 -56.0652 -74.3589C-46.6094 -83.7293 -36.2165 -91.4403 -24.0222 -94.4607C-10.6668 -97.7696 4.41 -100.754 15.9626 -92.2047Z" stroke="white"/>
<path opacity="0.2" fill-rule="evenodd" clip-rule="evenodd" d="M19.0555 -99.6968C31.7169 -90.3281 33.954 -70.7588 39.2557 -54.5019C44.1888 -39.3716 49.1801 -24.6401 48.7898 -8.51144C48.3287 10.4772 49.9345 33.9041 36.8328 45.2566C23.6342 56.6914 4.97039 43.0286 -11.5511 43.7687C-26.4996 44.436 -42.6367 59.1373 -55.0444 49.3682C-67.5805 39.4951 -61.6259 16.348 -67.1328 0.00965012C-72.2069 -15.06 -87.1583 -26.0338 -85.857 -42.0931C-84.5362 -58.3942 -71.3726 -69.3384 -60.6528 -79.9602C-50.1897 -90.3273 -38.6886 -98.8537 -25.1952 -102.199C-10.4139 -105.857 6.26803 -109.157 19.0555 -99.6968Z" stroke="white"/>
<path opacity="0.2" fill-rule="evenodd" clip-rule="evenodd" d="M22.3418 -107.656C36.3 -97.3259 38.767 -75.7569 44.6126 -57.8334C50.0524 -41.1535 55.5563 -24.9148 55.125 -7.13342C54.6183 13.7949 56.3935 39.6179 41.9465 52.1308C27.3957 64.7339 6.82096 49.6731 -11.3891 50.4843C-27.8681 51.2218 -45.6558 67.4234 -59.335 56.6542C-73.159 45.7706 -66.5925 20.2539 -72.6613 2.24631C-78.2577 -14.3634 -94.7381 -26.461 -93.3047 -44.1635C-91.8496 -62.133 -77.3362 -74.1953 -65.5224 -85.904C-53.9885 -97.3319 -41.3107 -106.734 -26.4361 -110.416C-10.1437 -114.448 8.24767 -118.087 22.3418 -107.656Z" stroke="white"/>
<path opacity="0.2" fill-rule="evenodd" clip-rule="evenodd" d="M25.916 -116.317C41.2876 -104.941 44.0037 -81.1952 50.4404 -61.4569C56.4301 -43.0948 62.4914 -25.2147 62.0183 -5.64362C61.4609 17.4002 63.413 45.8312 47.5109 59.6069C31.4931 73.4822 8.83493 56.8996 -11.2145 57.7932C-29.359 58.6018 -48.9443 76.4404 -64.0054 64.5818C-79.2278 52.5992 -71.9979 24.5105 -78.6808 4.67767C-84.8436 -13.609 -102.99 -26.9331 -101.413 -46.4218C-99.8115 -66.2035 -83.8348 -79.4843 -70.8249 -92.3733C-58.1262 -104.955 -44.1679 -115.305 -27.7897 -119.359C-9.85273 -123.799 10.3952 -127.805 25.916 -116.317Z" stroke="white"/>
</g>
</svg>
